<svg width="516" height="369" viewBox="0 0 516 369" fill="none" xmlns="http://www.w3.org/2000/svg">
<g clip-path="url(#clip0_1_77)">
<path fill-rule="evenodd" clip-rule="evenodd" d="M226.061 314.936C226.061 318.076 224.929 321.087 222.914 323.308C220.899 325.528 218.166 326.776 215.317 326.776C212.468 326.776 209.735 325.528 207.72 323.308C205.705 321.087 204.574 318.076 204.574 314.936C204.574 313.381 204.852 311.841 205.391 310.405C205.931 308.968 206.723 307.663 207.72 306.564C208.718 305.464 209.902 304.592 211.206 303.997C212.509 303.402 213.906 303.096 215.317 303.096C216.728 303.096 218.125 303.402 219.428 303.997C220.732 304.592 221.916 305.464 222.914 306.564C223.912 307.663 224.703 308.968 225.243 310.405C225.783 311.841 226.061 313.381 226.061 314.936Z" fill="black"/>
<path d="M362.928 350.107C349.32 350.565 172.495 354.479 140.283 353.435C139.83 353.421 139.388 353.583 139.052 353.887C138.715 354.192 138.511 354.615 138.48 355.068C138.48 355.068 138.249 358.183 139.092 361.447C139.513 363.079 140.203 364.801 141.469 366.215C142.734 367.628 144.657 368.653 147 368.701C149.036 368.742 161.682 368.774 179.806 368.799C197.931 368.823 221.427 368.836 244.812 368.836C268.198 368.836 291.472 368.823 309.152 368.789C317.993 368.772 325.435 368.75 330.795 368.722C333.475 368.709 335.635 368.694 337.191 368.677C338.748 368.661 339.55 368.657 340.053 368.619C341.444 368.512 343.534 367.992 346.359 367.24C349.184 366.488 352.599 365.501 356.041 364.461C362.924 362.38 369.809 360.135 372.471 359.05C373.738 358.534 374.827 357.838 375.568 356.775C375.939 356.244 376.222 355.582 376.238 354.834C376.255 354.085 375.962 353.307 375.49 352.726C374.546 351.564 373.118 350.987 371.115 350.578C369.112 350.169 366.463 349.988 362.928 350.107ZM363.045 353.605C366.398 353.492 368.82 353.68 370.416 354.006C371.877 354.304 372.419 354.72 372.576 354.855C372.378 355.089 371.908 355.499 371.15 355.808C368.908 356.722 361.859 359.045 355.029 361.109C351.614 362.141 348.227 363.121 345.461 363.857C342.695 364.593 340.406 365.081 339.785 365.129C339.785 365.129 338.699 365.161 337.154 365.177C335.609 365.194 333.454 365.209 330.777 365.222C325.424 365.249 317.985 365.272 309.146 365.289C291.47 365.322 268.196 365.336 244.812 365.336C221.429 365.336 197.933 365.323 179.81 365.298C161.688 365.274 148.829 365.237 147.072 365.201C145.622 365.171 144.799 364.687 144.076 363.88C143.354 363.073 142.813 361.862 142.48 360.572C142.14 359.255 142.018 357.935 141.976 356.933C177.271 357.894 349.23 354.07 363.045 353.605Z" fill="black"/>
<path fill-rule="evenodd" clip-rule="evenodd" d="M140.226 355.185C140.226 355.185 139.451 366.796 147.037 366.951C154.623 367.106 335.894 367.183 339.919 366.874C343.944 366.564 366.907 359.428 371.811 357.43C375.991 355.727 376.765 351.392 362.987 351.857C349.208 352.321 172.783 356.24 140.226 355.185Z" fill="black"/>
<path d="M291.947 260.216C289.252 260.216 255.738 260.603 221.824 260.99C187.91 261.377 153.645 261.765 150.291 261.765C146.888 261.765 144.522 261.323 142.258 262.525C141.126 263.126 140.249 264.201 139.687 265.527C139.126 266.853 138.777 268.47 138.471 270.621C138.116 273.111 138.008 279.233 137.955 287.543C137.901 295.852 137.942 306.136 138.019 316.16C138.173 336.208 138.476 355.213 138.476 355.213C138.48 355.442 138.529 355.669 138.62 355.88C138.711 356.091 138.843 356.282 139.008 356.442C139.173 356.602 139.368 356.728 139.582 356.812C139.796 356.897 140.024 356.939 140.254 356.935C140.718 356.927 141.159 356.736 141.482 356.403C141.805 356.069 141.982 355.622 141.974 355.158C141.974 355.158 141.673 336.164 141.519 316.134C141.442 306.119 141.402 295.844 141.455 287.564C141.508 279.284 141.697 272.786 141.935 271.115C142.222 269.105 142.557 267.723 142.91 266.89C143.263 266.057 143.53 265.814 143.9 265.617C144.642 265.223 146.726 265.265 150.291 265.265C153.904 265.265 187.951 264.877 221.865 264.49C255.78 264.103 289.611 263.716 291.947 263.716C294.171 263.716 294.952 264.093 295.592 265.06C296.231 266.027 296.685 268.122 296.779 271.498C296.952 277.72 294.149 342.019 292.162 353.105C292.121 353.331 292.126 353.563 292.175 353.788C292.224 354.012 292.317 354.225 292.448 354.414C292.58 354.602 292.747 354.763 292.94 354.887C293.134 355.011 293.35 355.096 293.576 355.136C294.033 355.218 294.503 355.116 294.884 354.851C295.265 354.586 295.525 354.181 295.607 353.724C297.883 341.028 300.491 279.112 300.277 271.4C300.177 267.809 299.856 265.161 298.512 263.129C297.167 261.096 294.754 260.216 291.947 260.216Z" fill="black"/>
<path d="M180.803 89.0816C178.441 88.9317 175.986 89.0645 173.449 89.484C172.991 89.5596 172.582 89.8141 172.312 90.1913C172.041 90.5686 171.932 91.0378 172.008 91.4957C172.083 91.9536 172.338 92.3627 172.715 92.633C173.092 92.9033 173.562 93.0127 174.019 92.9371C183.238 91.4128 190.569 93.8495 196.74 100.343C196.898 100.51 197.088 100.644 197.298 100.737C197.508 100.83 197.735 100.881 197.964 100.887C198.194 100.893 198.423 100.854 198.638 100.771C198.852 100.688 199.048 100.564 199.215 100.406C199.551 100.086 199.746 99.6461 199.758 99.1825C199.769 98.7188 199.597 98.2695 199.277 97.9332C194.137 92.5241 187.888 89.5314 180.803 89.0816Z" fill="black"/>
<path d="M222.9 100.882C219.374 100.768 216.078 101.838 213.127 103.703C212.734 103.951 212.457 104.344 212.354 104.797C212.252 105.25 212.334 105.724 212.582 106.117C212.83 106.509 213.223 106.787 213.676 106.889C214.129 106.991 214.604 106.91 214.996 106.662C218.323 104.56 221.667 103.774 225.625 104.795C225.847 104.852 226.079 104.865 226.307 104.833C226.534 104.801 226.753 104.725 226.951 104.608C227.149 104.492 227.323 104.337 227.461 104.154C227.599 103.97 227.7 103.761 227.758 103.539C227.815 103.316 227.828 103.084 227.796 102.857C227.764 102.629 227.688 102.41 227.571 102.212C227.454 102.014 227.299 101.84 227.116 101.702C226.932 101.564 226.723 101.463 226.5 101.406C225.277 101.091 224.076 100.921 222.9 100.882Z" fill="black"/>
<path d="M173.816 0.0367679C167.545 0.380188 161.461 3.14973 157.348 8.59536C153.608 13.5467 151.688 20.7277 152.297 29.9254C150.317 29.2788 147.569 28.5455 143.93 28.3356C137.825 27.9835 130.116 29.5212 125.019 36.8024C119.174 45.1521 116.696 56.4 115.988 65.3102C115.988 65.3109 115.988 65.3116 115.988 65.3122C115.749 68.3285 114.788 76.7991 115.09 86.2165C115.391 95.6339 116.872 106.101 121.937 113.502C125.112 118.14 129.974 119.435 134.224 118.851C138.475 118.267 142.254 116.106 144.482 113.703C145.582 112.516 146.376 111.32 146 109.826C145.812 109.079 145.293 108.501 144.797 108.164C144.3 107.827 143.804 107.652 143.307 107.519C141.317 106.989 138.928 107.087 137.863 106.943C135.381 106.609 132.989 104.389 131.791 101.347C130.592 98.3058 130.633 94.6684 132.611 91.7419C134.597 88.8049 136.941 88.3919 139.408 88.9255C141.875 89.4591 144.284 91.3281 145.125 92.7595C145.979 94.2137 146.432 97.1487 146.666 99.9978C146.783 101.422 146.87 102.828 147.019 104.09C147.169 105.351 147.312 106.444 147.892 107.494C148.843 109.213 150.731 110.59 152.957 110.226C155.182 109.863 156.946 107.8 157.896 104.365C159.686 97.8938 163.001 78.3023 176.66 70.4353C182.161 75.8527 188.016 79.3745 194.244 80.5876C200.504 81.8069 207.048 80.6489 213.703 77.3298C220.483 84.1861 226.558 88.2684 231.998 89.9704C237.684 91.7493 242.761 90.8758 246.631 88.0837C254.371 82.4995 257.442 70.2352 256.619 57.4958C255.796 44.7564 250.948 31.3129 241.418 23.279C232.252 15.5525 218.68 13.3791 201.506 21.736C198.456 7.43922 185.727 -0.615402 173.816 0.0367679ZM174.008 3.53286C184.776 2.94321 196.713 10.4768 198.56 24.4489C198.597 24.7284 198.702 24.9948 198.864 25.2254C199.026 25.4561 199.241 25.6441 199.492 25.7736C199.742 25.903 200.02 25.9701 200.302 25.969C200.584 25.9678 200.862 25.8987 201.111 25.7672C218.436 16.6281 230.674 18.7994 239.162 25.9547C247.65 33.11 252.35 45.72 253.125 57.7223C253.9 69.7247 250.621 80.8898 244.584 85.2458C241.565 87.4237 237.896 88.1483 233.045 86.6305C228.193 85.1127 222.221 81.2097 215.322 74.0387C215.057 73.7635 214.71 73.5824 214.332 73.5232C213.955 73.4639 213.569 73.5298 213.232 73.7106C206.71 77.2182 200.678 78.2752 194.912 77.152C189.146 76.0288 183.554 72.6803 178.099 67.0055C177.839 66.7349 177.499 66.5551 177.128 66.4929C176.758 66.4306 176.377 66.4892 176.043 66.6598C159.4 75.1678 156.113 97.6839 154.523 103.431C153.761 106.187 152.798 106.705 152.392 106.771C151.986 106.837 151.338 106.491 150.957 105.8C150.871 105.645 150.626 104.788 150.494 103.677C150.362 102.567 150.275 101.179 150.154 99.7106C149.913 96.7734 149.636 93.5268 148.144 90.986C146.638 88.4224 143.658 86.2647 140.148 85.5055C136.639 84.7463 132.418 85.7759 129.711 89.7809H129.713C126.998 93.7954 126.975 98.6714 128.535 102.631C130.095 106.59 133.283 109.858 137.396 110.412C139.02 110.631 141.146 110.634 142.238 110.886C142.145 111.026 142.128 111.095 141.916 111.324C140.378 112.983 137.058 114.93 133.748 115.384C130.438 115.839 127.276 115.104 124.826 111.525C120.471 105.163 118.879 95.2185 118.588 86.1051C118.296 76.9918 119.223 68.8133 119.478 65.5875C120.152 57.1037 122.634 46.3125 127.887 38.8102C132.182 32.6735 138.328 31.5183 143.728 31.8297C149.129 32.1412 153.457 34.027 153.457 34.027C153.739 34.1506 154.05 34.1974 154.356 34.1626C154.662 34.1278 154.954 34.0128 155.202 33.829C155.449 33.6452 155.644 33.3993 155.766 33.1162C155.888 32.833 155.933 32.5226 155.896 32.2165C154.708 22.2832 156.677 15.2898 160.141 10.7047C163.604 6.1197 168.623 3.82769 174.008 3.53286Z" fill="black"/>
<path fill-rule="evenodd" clip-rule="evenodd" d="M157.373 99.1538L147.566 94.1948C147.329 93.3308 147.027 92.5407 146.635 91.8727C144.288 87.8777 135.855 83.8187 131.162 90.7607C126.469 97.7018 131.035 107.789 137.63 108.677C140.374 109.047 146.964 108.451 143.199 112.514C139.433 116.576 129.006 120.731 123.382 112.514C113.962 98.7507 117.239 71.6918 117.734 65.4498C118.425 56.7528 120.905 45.7317 126.454 37.8057C135.846 24.3877 154.16 32.4238 154.16 32.4238C149.252 -8.61023 196.365 -5.51124 200.295 24.2188C271.261 -13.2162 270.28 133.684 214.062 75.2528C200.474 82.5608 188.101 79.9348 176.839 68.2178C164.089 74.7358 159.543 90.3058 157.373 99.1538Z" fill="black"/>
<path d="M147.019 92.5329C146.579 92.6777 146.213 92.9917 146.004 93.4059C145.9 93.611 145.838 93.8345 145.82 94.0636C145.803 94.2928 145.831 94.5231 145.903 94.7415C145.974 94.9598 146.088 95.1619 146.238 95.3363C146.388 95.5106 146.57 95.6537 146.775 95.7575L170.266 107.632C170.435 107.718 170.617 107.775 170.805 107.802L231.84 116.601C232.067 116.634 232.299 116.622 232.522 116.565C232.745 116.508 232.954 116.408 233.138 116.271C233.322 116.133 233.477 115.96 233.595 115.763C233.712 115.565 233.789 115.346 233.822 115.119C233.855 114.891 233.843 114.66 233.786 114.437C233.729 114.214 233.629 114.005 233.492 113.82C233.354 113.636 233.181 113.481 232.984 113.364C232.786 113.246 232.567 113.169 232.34 113.136L171.588 104.381L148.355 92.6325C148.15 92.5289 147.926 92.4669 147.697 92.4498C147.468 92.4327 147.238 92.4609 147.019 92.5329Z" fill="black"/>
<path d="M171.096 104.281C170.866 104.267 170.636 104.298 170.419 104.373C170.202 104.448 170.001 104.565 169.829 104.717C169.657 104.87 169.516 105.054 169.416 105.261C169.315 105.468 169.256 105.692 169.242 105.922C168.72 114.548 169.858 120.716 172.197 124.867C174.536 129.017 178.315 131.044 182.166 130.795C189.867 130.296 197.369 122.104 199.726 110.3C199.772 110.075 199.772 109.843 199.727 109.617C199.683 109.391 199.594 109.176 199.466 108.985C199.339 108.794 199.174 108.629 198.983 108.501C198.792 108.374 198.577 108.285 198.351 108.24C198.126 108.195 197.894 108.195 197.668 108.24C197.443 108.284 197.228 108.373 197.037 108.501C196.846 108.629 196.682 108.793 196.554 108.984C196.426 109.175 196.338 109.389 196.293 109.615C194.161 120.287 187.135 126.966 181.939 127.302C179.341 127.471 177.081 126.403 175.246 123.148C173.411 119.893 172.24 114.343 172.736 106.132C172.764 105.669 172.607 105.214 172.299 104.867C171.992 104.52 171.559 104.309 171.096 104.281Z" fill="black"/>
<path d="M207.576 109.57C207.12 109.486 206.649 109.586 206.267 109.848C205.884 110.111 205.622 110.514 205.537 110.97C204.126 118.583 204.586 123.762 206.65 127.164C208.714 130.566 212.502 131.661 216.107 131.037C219.713 130.412 223.386 128.353 226.559 125.568C229.731 122.783 232.402 119.254 233.74 115.449C233.894 115.011 233.867 114.53 233.667 114.112C233.466 113.694 233.107 113.372 232.67 113.218C232.232 113.065 231.751 113.091 231.333 113.292C230.915 113.493 230.593 113.851 230.439 114.289C229.367 117.337 227.042 120.486 224.25 122.937C221.458 125.388 218.197 127.122 215.512 127.588C212.826 128.053 210.967 127.533 209.642 125.349C208.318 123.165 207.648 118.787 208.978 111.609C209.063 111.153 208.963 110.681 208.7 110.299C208.437 109.917 208.032 109.654 207.576 109.57Z" fill="black"/>
<path d="M203.113 108.945C202.894 108.877 202.663 108.854 202.434 108.875C202.205 108.897 201.983 108.963 201.78 109.071C201.576 109.178 201.396 109.325 201.25 109.502C201.103 109.679 200.993 109.883 200.926 110.103C197.03 122.777 198.556 133.064 205.187 140.451C205.497 140.796 205.932 141.004 206.395 141.03C206.858 141.055 207.313 140.895 207.658 140.586C207.829 140.432 207.969 140.246 208.068 140.039C208.167 139.831 208.225 139.606 208.237 139.377C208.249 139.147 208.216 138.917 208.14 138.7C208.063 138.484 207.945 138.284 207.791 138.113C202.036 131.702 200.599 123.08 204.271 111.132C204.339 110.913 204.363 110.682 204.341 110.453C204.319 110.224 204.253 110.002 204.145 109.799C204.038 109.596 203.891 109.416 203.714 109.269C203.537 109.123 203.333 109.013 203.113 108.945Z" fill="black"/>
<path fill-rule="evenodd" clip-rule="evenodd" d="M191.433 116.628C191.248 117.121 191.003 117.586 190.713 117.996C190.424 118.407 190.094 118.755 189.745 119.021C189.395 119.287 189.031 119.466 188.674 119.547C188.317 119.627 187.974 119.609 187.665 119.493C187.355 119.376 187.085 119.164 186.87 118.868C186.655 118.572 186.499 118.197 186.412 117.767C186.324 117.336 186.306 116.857 186.359 116.357C186.412 115.858 186.534 115.347 186.72 114.854C187.094 113.859 187.702 112.998 188.409 112.461C189.115 111.924 189.863 111.754 190.488 111.99C191.113 112.225 191.564 112.846 191.741 113.716C191.918 114.586 191.808 115.633 191.433 116.628Z" fill="black"/>
<path fill-rule="evenodd" clip-rule="evenodd" d="M216.291 121.27C216.106 121.763 215.861 122.228 215.571 122.638C215.282 123.049 214.952 123.397 214.603 123.663C214.253 123.929 213.889 124.108 213.532 124.188C213.175 124.269 212.832 124.251 212.523 124.135C212.213 124.018 211.943 123.806 211.728 123.51C211.513 123.213 211.357 122.839 211.27 122.409C211.182 121.978 211.164 121.499 211.217 120.999C211.27 120.5 211.392 119.989 211.578 119.496C211.952 118.501 212.56 117.64 213.266 117.103C213.973 116.566 214.721 116.396 215.346 116.632C215.971 116.867 216.422 117.488 216.599 118.358C216.776 119.227 216.666 120.275 216.291 121.27Z" fill="black"/>
<path d="M215.867 133.871C215.439 133.693 214.957 133.692 214.528 133.869C214.099 134.046 213.758 134.386 213.58 134.814C206.133 152.726 189.994 166.081 174.039 168.697C166.061 170.005 158.166 168.694 151.187 164.025C144.209 159.356 138.092 151.26 133.967 138.736C133.895 138.517 133.781 138.315 133.631 138.141C133.481 137.967 133.298 137.824 133.092 137.72C132.887 137.617 132.663 137.554 132.434 137.537C132.205 137.52 131.974 137.549 131.756 137.621C131.315 137.766 130.95 138.08 130.741 138.494C130.532 138.909 130.496 139.389 130.641 139.83C134.948 152.907 141.492 161.751 149.24 166.935C156.989 172.12 165.886 173.579 174.605 172.15C192.044 169.291 208.919 155.144 216.812 136.158C216.99 135.729 216.991 135.247 216.813 134.818C216.636 134.39 216.296 134.049 215.867 133.871Z" fill="black"/>
<path d="M175.377 143.314C174.962 143.107 174.481 143.073 174.041 143.219C173.601 143.366 173.237 143.682 173.029 144.097C172.927 144.303 172.865 144.527 172.849 144.756C172.833 144.986 172.862 145.216 172.935 145.434C173.008 145.652 173.123 145.853 173.274 146.027C173.425 146.2 173.609 146.342 173.814 146.445C173.814 146.445 179.213 149.157 186.297 149.293C186.761 149.301 187.209 149.126 187.543 148.804C187.878 148.483 188.071 148.042 188.08 147.578C188.084 147.348 188.043 147.12 187.96 146.905C187.876 146.691 187.75 146.496 187.591 146.33C187.432 146.165 187.241 146.032 187.03 145.94C186.82 145.848 186.593 145.799 186.363 145.795C180.135 145.676 175.377 143.314 175.377 143.314Z" fill="black"/>
<path fill-rule="evenodd" clip-rule="evenodd" d="M79.8625 244.93C73.7075 252.96 63.5066 276.294 60.0986 285.568C56.6896 294.843 57.5616 296.428 60.4946 297.141C66.5086 298.604 97.7495 309.507 102.902 311.013C108.054 312.519 107.908 314.148 104.17 316.165C93.0435 322.171 85.3626 333.525 79.9236 340.804C69.3956 354.893 75.5885 361.24 71.5635 361.085C67.5375 360.93 43.4226 357.855 31.7756 355.357C0.823568 348.719 -1.47145 326.203 0.531549 307.016C2.72355 286.016 26.3335 243.504 41.1415 219.97C69.7825 174.454 99.6636 165.285 110.271 162.595C121.209 159.822 124.967 161.477 125.827 166.658C130.661 195.781 147.526 188.852 151.984 185.979C157.276 182.569 158.057 178.391 165.138 178.498C210.239 179.181 217.842 232.421 219.922 243.815C222.003 255.21 220.121 256.795 216.682 257.092C211.517 257.539 162.709 257.711 149.394 257.866C136.08 258.021 136.08 259.569 135.151 264.833C133.467 274.375 134.26 318.647 134.26 318.647C131.089 319.638 124.45 316.17 115.236 311.117C106.021 306.064 86.2046 300.218 74.3146 297.245C62.4246 294.273 62.6225 292.192 64.9015 282.482C67.1805 272.772 79.8625 244.93 79.8625 244.93ZM144.375 201.15C141.312 201.15 138.826 203.791 138.826 207.045C138.826 210.299 141.312 212.94 144.375 212.94C147.437 212.94 149.923 210.299 149.923 207.045C149.923 203.791 147.437 201.15 144.375 201.15ZM144.375 234.355C142.136 234.355 140.318 236.286 140.318 238.665C140.318 241.044 142.136 242.975 144.375 242.975C146.614 242.975 148.431 241.044 148.431 238.665C148.431 236.286 146.614 234.355 144.375 234.355Z" fill="black"/>
<path d="M95.4881 314.806C95.0673 314.611 94.5859 314.59 94.1501 314.75C93.7142 314.909 93.3595 315.235 93.1639 315.656C92.9684 316.077 92.9481 316.558 93.1074 316.994C93.2667 317.43 93.5927 317.785 94.0135 317.98C94.0135 317.98 101.778 321.588 110.662 326.404C119.545 331.22 129.605 337.383 133.734 341.838C134.05 342.178 134.487 342.379 134.951 342.396C135.415 342.414 135.867 342.247 136.207 341.931C136.547 341.616 136.748 341.178 136.766 340.714C136.783 340.251 136.616 339.799 136.301 339.459C131.393 334.164 121.321 328.202 112.33 323.328C103.339 318.453 95.4881 314.806 95.4881 314.806Z" fill="black"/>
<path d="M126.724 340.513C126.507 340.588 126.306 340.705 126.134 340.858C125.962 341.01 125.821 341.195 125.721 341.402C125.518 341.819 125.489 342.299 125.64 342.738C125.791 343.176 126.11 343.537 126.527 343.74C126.527 343.74 132.511 346.773 135.076 349.38C135.237 349.545 135.429 349.675 135.641 349.765C135.852 349.855 136.08 349.903 136.31 349.905C136.54 349.907 136.768 349.863 136.981 349.777C137.195 349.691 137.389 349.563 137.553 349.402C137.883 349.076 138.071 348.633 138.075 348.169C138.078 347.705 137.898 347.258 137.572 346.927C134.149 343.447 128.06 340.595 128.06 340.595C127.644 340.392 127.163 340.363 126.724 340.513Z" fill="black"/>
<path d="M122.113 346.429C121.656 346.351 121.186 346.457 120.807 346.725C120.428 346.992 120.17 347.4 120.092 347.857C120.013 348.314 120.119 348.784 120.386 349.163C120.653 349.542 121.06 349.799 121.517 349.879C121.517 349.879 128.078 351.028 134.209 354.22C134.413 354.327 134.636 354.392 134.865 354.412C135.094 354.432 135.324 354.407 135.544 354.338C135.763 354.268 135.966 354.157 136.143 354.009C136.319 353.861 136.464 353.68 136.57 353.476C136.784 353.065 136.826 352.585 136.686 352.142C136.547 351.7 136.237 351.331 135.826 351.117C129.097 347.613 122.113 346.429 122.113 346.429Z" fill="black"/>
<path d="M72.6327 338.046C72.4493 338.185 72.2949 338.358 72.1785 338.556C72.0621 338.755 71.9859 338.974 71.9542 339.201C71.9224 339.429 71.9358 339.661 71.9936 339.883C72.0514 340.105 72.1524 340.314 72.2909 340.498C72.2909 340.498 74.5525 343.49 77.2792 346.849C80.0058 350.208 83.0504 353.85 85.2596 355.582C87.0931 357.019 88.5694 358.151 90.9374 358.75C93.3053 359.349 96.3734 359.473 101.91 359.423C112.917 359.324 125.745 359.137 136.096 360.498C136.324 360.528 136.555 360.513 136.778 360.453C137 360.394 137.208 360.291 137.391 360.151C137.573 360.011 137.726 359.836 137.841 359.637C137.956 359.438 138.031 359.218 138.06 358.99C138.09 358.762 138.075 358.53 138.015 358.308C137.956 358.086 137.853 357.878 137.713 357.696C137.573 357.514 137.399 357.361 137.199 357.246C137 357.131 136.781 357.057 136.553 357.027C125.795 355.613 112.868 355.825 101.879 355.923C96.4165 355.973 93.5406 355.798 91.7967 355.357C90.0529 354.916 89.2504 354.264 87.4178 352.828C85.961 351.686 82.6802 347.946 79.9979 344.642C77.3156 341.338 75.0839 338.386 75.0839 338.386C74.8038 338.016 74.3883 337.773 73.9286 337.709C73.469 337.645 73.0028 337.767 72.6327 338.046Z" fill="black"/>
<path d="M330.332 113.564C329.885 113.441 329.407 113.5 329.004 113.728C328.804 113.841 328.628 113.993 328.486 114.174C328.345 114.356 328.24 114.563 328.179 114.785C328.118 115.006 328.101 115.238 328.129 115.466C328.157 115.694 328.23 115.915 328.344 116.115C333.499 125.201 333.323 133.825 327.592 142.933C327.469 143.128 327.386 143.345 327.348 143.571C327.309 143.798 327.316 144.03 327.367 144.254C327.418 144.479 327.513 144.691 327.646 144.878C327.779 145.066 327.948 145.225 328.142 145.347C328.535 145.594 329.01 145.675 329.462 145.572C329.914 145.469 330.307 145.191 330.555 144.798C336.827 134.83 337.057 124.376 331.389 114.386C331.159 113.983 330.779 113.687 330.332 113.564Z" fill="black"/>
<path d="M324.08 121.097C323.634 121.223 323.255 121.521 323.029 121.926C322.802 122.331 322.745 122.809 322.871 123.255C323.46 125.343 323.453 126.972 323.168 128.025C322.883 129.078 322.422 129.525 321.892 129.734C321.363 129.943 320.567 129.946 319.445 129.353C318.324 128.76 316.956 127.56 315.617 125.599C315.355 125.216 314.952 124.952 314.496 124.866C314.04 124.78 313.569 124.879 313.185 125.14C312.802 125.402 312.538 125.805 312.452 126.261C312.366 126.717 312.465 127.189 312.726 127.572C314.309 129.888 316.027 131.507 317.808 132.449C319.59 133.391 321.513 133.645 323.176 132.99C324.838 132.335 326.042 130.804 326.547 128.939C327.051 127.074 326.957 124.843 326.24 122.304C326.114 121.858 325.815 121.48 325.41 121.254C325.005 121.027 324.526 120.971 324.08 121.097Z" fill="black"/>
<path d="M352.15 108.886C351.929 108.947 351.721 109.051 351.54 109.193C351.358 109.334 351.207 109.509 351.093 109.709C350.98 109.909 350.906 110.129 350.878 110.358C350.85 110.586 350.867 110.817 350.928 111.039C352.129 115.401 350.918 118.511 349.56 119.449C348.882 119.918 348.181 120.05 347.113 119.646C346.045 119.242 344.638 118.168 343.197 116.08C342.934 115.698 342.529 115.436 342.073 115.352C341.617 115.268 341.146 115.369 340.764 115.632C340.574 115.763 340.412 115.929 340.287 116.123C340.162 116.316 340.077 116.531 340.035 116.758C339.994 116.984 339.997 117.216 340.045 117.441C340.093 117.666 340.186 117.879 340.316 118.068C342.035 120.559 343.898 122.171 345.875 122.92C347.852 123.668 349.969 123.419 351.549 122.328C354.708 120.146 355.767 115.428 354.303 110.109C354.242 109.887 354.138 109.68 353.996 109.499C353.855 109.317 353.68 109.165 353.48 109.052C353.28 108.938 353.06 108.865 352.831 108.837C352.603 108.808 352.372 108.825 352.15 108.886Z" fill="black"/>
<path d="M359.795 144.992C359.4 144.749 358.924 144.673 358.473 144.78C358.022 144.887 357.632 145.169 357.389 145.564C354.654 150.001 351.759 153.527 348.764 155.38C345.768 157.234 342.789 157.64 338.84 155.83C338.631 155.734 338.405 155.68 338.175 155.672C337.946 155.663 337.717 155.7 337.501 155.78C337.286 155.86 337.088 155.981 336.92 156.138C336.751 156.294 336.615 156.482 336.519 156.691C336.424 156.9 336.37 157.126 336.361 157.355C336.353 157.585 336.389 157.814 336.469 158.03C336.549 158.245 336.671 158.443 336.827 158.611C336.984 158.78 337.172 158.916 337.381 159.011C342.208 161.224 346.813 160.704 350.605 158.357C354.398 156.01 357.497 152.057 360.367 147.4C360.488 147.204 360.568 146.987 360.605 146.76C360.641 146.533 360.633 146.301 360.58 146.077C360.527 145.854 360.43 145.643 360.295 145.456C360.161 145.27 359.991 145.112 359.795 144.992Z" fill="black"/>
<path d="M380.98 151.806C380.544 151.647 380.063 151.667 379.642 151.863C379.221 152.059 378.896 152.413 378.736 152.849C377.002 157.596 373.071 162.745 368.262 166.267C363.453 169.789 357.876 171.657 352.732 170.47C346.219 168.967 339.918 171.833 334.201 176.414C328.484 180.995 323.156 187.382 318.264 193.625C299.335 217.775 287.49 252.201 287.49 252.201C287.415 252.418 287.383 252.648 287.397 252.877C287.411 253.107 287.469 253.331 287.57 253.538C287.67 253.745 287.811 253.93 287.983 254.083C288.155 254.235 288.355 254.352 288.572 254.427C288.789 254.503 289.019 254.534 289.249 254.521C289.478 254.507 289.703 254.448 289.91 254.348C290.116 254.247 290.301 254.107 290.454 253.935C290.606 253.763 290.724 253.563 290.799 253.345C290.799 253.345 302.652 219.217 321.017 195.785C325.862 189.604 331.089 183.391 336.389 179.144C341.688 174.898 346.866 172.708 351.945 173.88C358.394 175.369 364.958 173.025 370.33 169.091C375.702 165.157 379.993 159.607 382.023 154.05C382.183 153.615 382.162 153.133 381.967 152.712C381.771 152.291 381.416 151.966 380.98 151.806Z" fill="black"/>
<path d="M351.098 185.197C350.868 185.214 350.644 185.276 350.439 185.38C350.234 185.483 350.051 185.626 349.901 185.801C349.751 185.975 349.637 186.177 349.565 186.396C349.493 186.614 349.465 186.845 349.482 187.074C352.943 233.204 351.209 276.533 332.226 310.918C332.115 311.119 332.045 311.34 332.019 311.568C331.993 311.797 332.013 312.028 332.076 312.249C332.14 312.47 332.246 312.676 332.39 312.856C332.533 313.036 332.711 313.185 332.912 313.297C333.113 313.408 333.335 313.478 333.563 313.504C333.792 313.529 334.023 313.51 334.244 313.446C334.465 313.382 334.671 313.275 334.851 313.132C335.03 312.988 335.18 312.81 335.291 312.609C354.83 277.218 356.452 233.19 352.973 186.812C352.938 186.349 352.721 185.919 352.37 185.616C352.018 185.313 351.56 185.162 351.098 185.197Z" fill="black"/>
<path d="M420.967 164.775C418.37 164.767 415.794 165.204 413.133 166.015C407.403 167.761 402.449 172.741 397.383 177.863C392.316 182.985 387.165 188.314 381.844 191.074C373.384 195.462 368.125 193.682 364.547 190.984C360.969 188.286 359.336 184.509 359.336 184.509C359.246 184.298 359.116 184.106 358.952 183.944C358.788 183.783 358.594 183.655 358.381 183.569C358.168 183.483 357.94 183.439 357.71 183.441C357.48 183.443 357.253 183.49 357.041 183.58C356.829 183.669 356.637 183.8 356.476 183.964C356.315 184.128 356.188 184.322 356.102 184.535C356.015 184.748 355.972 184.976 355.974 185.206C355.976 185.436 356.023 185.663 356.113 185.875C356.113 185.875 358.018 190.445 362.439 193.779C366.861 197.113 374.064 199.051 383.455 194.179C389.564 191.011 394.835 185.417 399.871 180.326C404.907 175.235 409.736 170.709 414.152 169.363C418.975 167.894 422.905 167.792 427.76 169.509C432.614 171.227 438.391 174.894 446.285 181.086C463.166 194.326 493.291 216.255 509.432 272.613C513.542 286.966 512.258 302.868 508.396 316.463C504.535 330.057 497.997 341.353 492.31 346.281C492.31 346.281 492.309 346.281 492.308 346.281C488.657 349.446 481.7 356.151 468.512 360.134C455.323 364.118 435.944 365.307 407.76 356.72C407.67 356.693 407.61 356.627 407.59 356.537C407.57 356.447 407.596 356.361 407.666 356.299C407.672 356.293 407.679 356.287 407.685 356.281C410.44 353.729 414.436 349.185 416.652 342.671C418.868 336.159 419.223 327.682 414.84 317.675C414.812 317.613 414.812 317.547 414.84 317.482C414.864 317.429 414.91 317.396 414.959 317.373C420.458 315.965 437.223 312.921 466.787 318.052C467.013 318.092 467.245 318.086 467.47 318.036C467.694 317.985 467.906 317.891 468.094 317.759C468.282 317.626 468.442 317.458 468.565 317.264C468.688 317.07 468.771 316.853 468.81 316.627C468.85 316.4 468.844 316.168 468.794 315.944C468.743 315.72 468.649 315.507 468.517 315.32C468.384 315.132 468.216 314.972 468.022 314.849C467.828 314.726 467.611 314.642 467.385 314.603C437.242 309.372 419.892 312.477 413.978 314.002C413.936 314.013 413.893 314.026 413.851 314.041C412.861 314.378 412.058 315.116 411.637 316.07C411.636 316.071 411.635 316.073 411.635 316.074C411.215 317.029 411.214 318.121 411.633 319.078C415.703 328.368 415.299 335.781 413.338 341.545C411.376 347.308 407.775 351.426 405.306 353.713L405.326 353.695C404.324 354.596 403.879 355.976 404.172 357.295C404.464 358.612 405.449 359.675 406.74 360.068C435.44 368.812 455.607 367.69 469.523 363.486C483.439 359.283 491.141 351.924 494.601 348.926C501.24 343.173 507.762 331.505 511.763 317.42C515.764 303.335 517.147 286.841 512.797 271.65C496.403 214.408 465.216 191.487 448.445 178.332C440.43 172.045 434.421 168.155 428.927 166.211C426.181 165.239 423.563 164.783 420.967 164.775Z" fill="black"/>
<path d="M363.015 318.392C363.015 318.392 344.466 317.18 333.363 331.959C330.934 335.192 328.837 338.716 327.742 341.855C327.194 343.425 326.871 344.902 327.015 346.341C327.16 347.781 328.017 349.297 329.463 349.951C329.463 349.951 329.464 349.951 329.465 349.951C331.48 350.861 333.774 350.333 336.031 349.06C338.288 347.788 340.743 345.719 343.619 342.88C355.536 331.121 365.478 327.691 373.584 328.164C373.813 328.177 374.043 328.145 374.261 328.07C374.478 327.994 374.678 327.877 374.85 327.724C375.022 327.571 375.162 327.386 375.262 327.179C375.362 326.972 375.42 326.747 375.434 326.517C375.46 326.054 375.302 325.599 374.993 325.252C374.684 324.906 374.25 324.696 373.787 324.67C364.519 324.129 353.535 328.178 341.162 340.388C338.397 343.117 336.082 345.014 334.312 346.011C332.543 347.009 331.555 347.055 330.906 346.761C330.597 346.621 330.559 346.602 330.498 345.994C330.437 345.384 330.598 344.296 331.047 343.009C331.945 340.436 333.893 337.081 336.162 334.062C346.083 320.857 362.795 321.884 362.795 321.884C363.024 321.899 363.254 321.868 363.472 321.794C363.689 321.719 363.89 321.603 364.063 321.451C364.235 321.299 364.376 321.114 364.477 320.908C364.578 320.701 364.638 320.477 364.652 320.248C364.681 319.785 364.525 319.329 364.218 318.981C363.911 318.633 363.479 318.421 363.015 318.392Z" fill="black"/>
<path d="M374.256 334.572C370.388 334.694 365.733 335.847 361.41 337.533C357.087 339.219 353.138 341.378 350.717 343.947C348.796 345.984 347.165 346.881 345.998 347.144C344.831 347.407 344.104 347.158 343.455 346.63C343.543 346.702 343.419 346.608 343.357 346.213C343.296 345.818 343.3 345.222 343.361 344.638C343.484 343.47 343.791 342.398 343.791 342.398C343.92 341.952 343.867 341.474 343.643 341.067C343.419 340.66 343.043 340.359 342.598 340.23C342.152 340.101 341.673 340.154 341.267 340.378C340.86 340.602 340.559 340.978 340.43 341.423C340.43 341.423 340.043 342.73 339.881 344.271C339.8 345.042 339.763 345.885 339.898 346.754C340.034 347.622 340.346 348.616 341.246 349.347C342.657 350.494 344.67 351.031 346.768 350.558C348.865 350.085 351.024 348.723 353.264 346.347C355.002 344.502 358.661 342.363 362.682 340.795C366.703 339.227 371.126 338.172 374.365 338.07C374.366 338.07 374.367 338.07 374.367 338.07C377.35 337.975 378.945 338.397 380.691 339.463C382.438 340.528 384.361 342.403 387.322 345.16C390.72 348.323 395.626 349.573 400.75 349.273C405.874 348.973 411.288 347.122 415.924 343.795C416.301 343.524 416.555 343.115 416.631 342.657C416.706 342.199 416.596 341.73 416.326 341.353C416.192 341.166 416.023 341.007 415.827 340.886C415.632 340.765 415.415 340.683 415.188 340.646C414.961 340.608 414.729 340.616 414.505 340.668C414.281 340.721 414.07 340.817 413.883 340.951C409.802 343.88 404.965 345.52 400.545 345.779C396.125 346.038 392.195 344.915 389.707 342.599C386.784 339.877 384.8 337.871 382.514 336.476C380.228 335.081 377.665 334.464 374.256 334.572Z" fill="black"/>
<path d="M369.133 305.785C360.061 305.885 350.747 307.63 343.174 311.271C336.731 314.369 330.507 319.086 325.656 323.961C320.806 328.835 317.273 333.715 316.453 337.961C315.7 341.857 316.545 345.366 319.051 347.355C321.557 349.344 325.264 349.51 329.389 347.974C329.823 347.812 330.176 347.484 330.369 347.062C330.562 346.64 330.58 346.159 330.418 345.724C330.338 345.509 330.216 345.311 330.059 345.143C329.903 344.974 329.714 344.839 329.505 344.743C329.296 344.647 329.07 344.594 328.84 344.586C328.611 344.577 328.381 344.615 328.166 344.695C324.744 345.969 322.474 345.603 321.226 344.613C319.978 343.622 319.293 341.704 319.889 338.625C320.416 335.895 323.551 331.04 328.139 326.429C332.726 321.819 338.709 317.301 344.689 314.425C358.555 307.758 380.354 308.089 392.207 313.363C404.877 319.001 413.113 320.564 413.113 320.564C413.339 320.607 413.571 320.605 413.796 320.558C414.022 320.51 414.235 320.419 414.425 320.29C414.615 320.16 414.777 319.994 414.903 319.802C415.029 319.609 415.116 319.394 415.158 319.168C415.244 318.712 415.145 318.24 414.883 317.857C414.621 317.474 414.218 317.21 413.762 317.125C413.762 317.125 406.009 315.674 393.631 310.166C387.033 307.23 378.204 305.685 369.133 305.785Z" fill="black"/>
<path d="M438.486 218.779C438.263 218.833 438.053 218.931 437.867 219.067C437.682 219.203 437.525 219.374 437.406 219.57C437.286 219.767 437.207 219.985 437.172 220.212C437.137 220.439 437.147 220.671 437.201 220.894C440.649 235.027 441.485 254.896 443.465 273.129C445.445 291.361 448.351 308.082 457.283 316.295C457.625 316.609 458.077 316.774 458.541 316.755C459.005 316.735 459.442 316.533 459.756 316.191C459.911 316.022 460.032 315.824 460.111 315.608C460.189 315.392 460.225 315.162 460.215 314.933C460.205 314.703 460.15 314.478 460.053 314.269C459.957 314.061 459.82 313.874 459.65 313.718C452.262 306.925 448.907 290.812 446.945 272.75C444.984 254.687 444.196 234.796 440.601 220.064C440.547 219.841 440.449 219.63 440.313 219.445C440.177 219.26 440.006 219.103 439.81 218.983C439.614 218.864 439.396 218.785 439.168 218.75C438.941 218.714 438.709 218.724 438.486 218.779Z" fill="black"/>
<path d="M339.896 85.6344C339.529 85.6759 339.185 85.8324 338.913 86.0815C338.64 86.3305 338.453 86.6594 338.379 87.0211C338.379 87.0211 336.885 94.278 331.967 101.769C327.048 109.26 318.914 116.826 305.254 117.679C305.005 117.695 304.763 117.764 304.543 117.88C304.323 117.997 304.131 118.159 303.979 118.356C303.827 118.553 303.718 118.781 303.661 119.023C303.604 119.265 303.599 119.517 303.646 119.761C303.646 119.761 312.285 164.428 351.408 173.767C351.632 173.821 351.864 173.829 352.091 173.793C352.318 173.757 352.536 173.676 352.732 173.556C352.927 173.436 353.098 173.278 353.233 173.091C353.367 172.905 353.464 172.694 353.517 172.47C353.625 172.019 353.549 171.543 353.305 171.148C353.062 170.753 352.672 170.47 352.221 170.363C317.902 162.17 308.709 125.876 307.584 120.9C321.192 119.324 329.844 111.379 334.892 103.691C338.003 98.9537 339.602 94.8784 340.592 91.8258C346.627 102.926 354.335 109.318 360.889 112.609C368.192 116.277 374.092 116.494 374.092 116.494C374.389 116.504 374.684 116.438 374.948 116.303C375.213 116.168 375.439 115.967 375.605 115.72C375.77 115.473 375.871 115.188 375.896 114.892C375.921 114.596 375.87 114.298 375.748 114.027C375.135 112.666 374.894 110.167 375.226 107.56C375.559 104.953 376.423 102.222 377.598 100.263C378.772 98.3043 380.111 97.2777 381.406 97.2145C382.701 97.1512 384.636 97.9995 387.113 101.337C391.602 107.385 390.125 112.787 387.498 117.201C384.871 121.615 381.045 124.566 381.045 124.566C380.803 124.751 380.614 124.995 380.496 125.275C379.892 126.702 379.86 128.369 379.93 130.662C379.999 132.954 380.295 135.732 380.853 138.697C381.969 144.627 384.087 151.293 387.777 156.125C392.719 162.594 400.704 165.54 407.359 166.974C414.014 168.409 419.516 168.306 419.516 168.306C419.745 168.302 419.972 168.253 420.183 168.161C420.394 168.069 420.584 167.937 420.744 167.772C420.904 167.606 421.029 167.411 421.113 167.197C421.197 166.983 421.238 166.755 421.234 166.525C421.23 166.295 421.181 166.068 421.089 165.858C420.997 165.647 420.865 165.456 420.7 165.297C420.534 165.137 420.339 165.012 420.125 164.927C419.911 164.843 419.683 164.802 419.453 164.806C419.453 164.806 414.333 164.896 408.098 163.552C401.862 162.208 394.69 159.407 390.558 154C387.437 149.914 385.344 143.637 384.293 138.048C383.767 135.254 383.49 132.63 383.428 130.556C383.369 128.606 383.608 127.204 383.701 126.871C384.455 126.273 387.787 123.559 390.506 118.992C393.543 113.888 395.273 106.459 389.924 99.2516C387.088 95.4301 384.152 93.5758 381.234 93.7184C378.317 93.8609 376.103 95.9499 374.596 98.4645C373.088 100.979 372.143 104.08 371.756 107.117C371.508 109.063 371.594 110.907 371.879 112.65C369.857 112.341 366.834 111.677 362.459 109.48C355.767 106.119 347.592 99.6044 341.685 86.6461C341.532 86.3103 341.276 86.0317 340.955 85.85C340.634 85.6682 340.263 85.5928 339.896 85.6344Z" fill="black"/>
<path d="M375.863 24.2789C372.602 24.1355 369.153 24.2501 365.502 24.6305C351.139 26.1272 342.849 33.4932 338.363 40.4371C335.133 45.4375 334.08 49.3543 333.58 51.6715C323.028 45.8337 314.013 44.0792 306.547 45.6656C298.58 47.3583 292.524 52.6412 288.166 59.4918C279.449 73.1931 277.019 93.2763 278.131 107.17C280.272 133.929 273.406 139.595 269.027 148.191C269.027 148.191 269.026 148.191 269.025 148.191C266.856 152.45 264.206 159.211 263.902 167.187C263.599 175.164 265.713 184.37 272.953 193.138C287.675 210.968 313.974 204.816 313.974 204.816C314.427 204.713 314.82 204.434 315.067 204.041C315.314 203.648 315.394 203.173 315.291 202.72C315.187 202.268 314.909 201.875 314.516 201.628C314.123 201.381 313.648 201.301 313.195 201.404C313.195 201.404 288.795 206.83 275.65 190.91C268.957 182.803 267.123 174.593 267.4 167.32C267.677 160.047 270.134 153.725 272.144 149.779C276.125 141.965 283.814 134.316 281.619 106.89C280.563 93.6915 283.092 73.9882 291.119 61.3707C295.132 55.062 300.394 50.5513 307.273 49.0895C314.153 47.6277 322.87 49.1923 333.867 55.7418C334.116 55.8902 334.399 55.9743 334.689 55.9864C334.979 55.9985 335.267 55.9384 335.528 55.8113C335.789 55.6842 336.014 55.4942 336.184 55.2584C336.353 55.0226 336.461 54.7484 336.498 54.4606C336.498 54.4606 337.256 48.6034 341.304 42.3356C345.353 36.0678 352.524 29.5012 365.865 28.111C379.862 26.6525 390.19 29.2115 398.39 35.191C406.591 41.1706 412.743 50.7228 417.859 63.5192C423.002 76.3817 426.052 87.7391 432.205 96.7477C438.358 105.756 447.735 112.145 464.615 114.72C469.97 115.537 479.941 118.824 487.687 125.066C495.433 131.308 501.05 140.213 498.689 153.134C496.315 166.129 488.486 173.565 479.162 177.634C469.838 181.704 458.995 182.205 451.351 180.867C450.894 180.787 450.424 180.892 450.044 181.158C449.664 181.425 449.406 181.832 449.326 182.289C449.246 182.746 449.351 183.216 449.618 183.596C449.884 183.976 450.291 184.234 450.748 184.314C459.076 185.772 470.437 185.261 480.562 180.841C490.688 176.422 499.553 167.887 502.133 153.763C504.726 139.565 498.286 129.114 489.883 122.341C481.48 115.57 471.207 112.186 465.144 111.261H465.142C448.906 108.784 440.768 103.079 435.096 94.7731C429.422 86.4666 426.335 75.2878 421.109 62.2184C415.857 49.0828 409.411 38.8944 400.453 32.3629C393.735 27.4643 385.647 24.7092 375.863 24.2789Z" fill="black"/>
<path fill-rule="evenodd" clip-rule="evenodd" d="M313.585 203.111C313.585 203.111 288.235 208.899 274.302 192.024C260.369 175.149 266.406 157.191 270.586 148.985C274.766 140.78 282.043 134.123 279.875 107.03C277.708 79.9377 289.794 27.4547 334.763 54.2377C334.763 54.2377 337.98 29.2577 365.684 26.3707C394.284 23.3907 409.117 36.9367 419.485 62.8687C429.853 88.8007 431.762 107.939 464.88 112.991C476.298 114.732 505.365 126.331 500.411 153.45C495.457 180.568 467.022 185.386 451.05 182.59C449.762 181.579 448.531 180.621 447.366 179.708C434.619 169.71 427.164 166.034 419.485 166.557C419.485 166.557 398.241 166.939 389.168 155.062C382.356 146.145 380.746 129.177 382.108 125.957C382.108 125.957 398.357 113.55 388.519 100.295C377.892 85.9757 370.808 107.314 374.152 114.745C374.152 114.745 352.23 114.002 340.093 87.3727C340.093 87.3727 333.9 117.643 305.364 119.426C305.364 119.426 313.867 163.006 351.815 172.065C340.405 169.887 329.231 182.47 319.641 194.705C317.533 197.395 315.512 200.218 313.585 203.111Z" fill="black"/>
<path d="M313.588 30.8454C308.84 30.4877 303.494 31.8441 297.568 35.3454C297.169 35.5813 296.879 35.9664 296.763 36.4158C296.648 36.8652 296.715 37.3422 296.951 37.7418C297.187 38.1415 297.572 38.431 298.021 38.5467C298.471 38.6625 298.948 38.5949 299.348 38.359C304.824 35.1233 309.429 34.0422 313.324 34.3356C317.219 34.629 320.49 36.2839 323.349 38.8883C329.068 44.0973 332.882 53.2037 334.906 61.3024C334.962 61.5254 335.061 61.7353 335.198 61.9201C335.335 62.1048 335.507 62.2607 335.704 62.379C335.901 62.4972 336.12 62.5755 336.347 62.6093C336.574 62.643 336.806 62.6317 337.029 62.5758C337.479 62.4633 337.866 62.1766 338.105 61.7789C338.344 61.3811 338.415 60.9049 338.303 60.4547C336.183 51.9724 332.325 42.3282 325.707 36.3004C322.398 33.2865 318.336 31.203 313.588 30.8454Z" fill="black"/>
</g>
<defs>
<clipPath id="clip0_1_77">
<rect width="515.476" height="368.836" fill="white"/>
</clipPath>
</defs>
</svg>
